<?xml version="1.0" encoding="UTF-8"?>
<svg width="24px" height="24px" viewBox="0 0 24 24" version="1.1" xmlns="http://www.w3.org/2000/svg" xmlns:xlink="http://www.w3.org/1999/xlink">
    <title>Scissors Icon</title>
    <g stroke="none" stroke-width="1" fill="none" fill-rule="evenodd">
        <path d="M8,7 C9.1045695,7 10,6.1045695 10,5 C10,3.8954305 9.1045695,3 8,3 C6.8954305,3 6,3.8954305 6,5 C6,6.1045695 6.8954305,7 8,7 Z M8,9 C5.790861,9 4,7.209139 4,5 C4,2.790861 5.790861,1 8,1 C10.209139,1 12,2.790861 12,5 C12,7.209139 10.209139,9 8,9 Z" fill="#FF6B6B" fill-rule="nonzero"></path>
        <path d="M19.7736,15.7736 C20.744,14.8032 20.744,13.2296 19.7736,12.2592 C18.8032,11.2888 17.2296,11.2888 16.2592,12.2592 C15.2888,13.2296 15.2888,14.8032 16.2592,15.7736 C17.2296,16.744 18.8032,16.744 19.7736,15.7736 Z M21.188,17.188 C23.1296,15.2464 23.1296,12.1864 21.188,10.2448 C19.2464,8.3032 16.1864,8.3032 14.2448,10.2448 C12.3032,12.1864 12.3032,15.2464 14.2448,17.188 C16.1864,19.1296 19.2464,19.1296 21.188,17.188 Z" fill="#4ECDC4" fill-rule="nonzero"></path>
        <path d="M12.5,14 L17.5,7.5" stroke="#FF6B6B" stroke-width="2" stroke-linecap="round"></path>
        <path d="M6.5,14 L11.5,7.5" stroke="#4ECDC4" stroke-width="2" stroke-linecap="round" transform="translate(9.000000, 10.750000) scale(-1, 1) translate(-9.000000, -10.750000) "></path>
        <path d="M8,17 C9.1045695,17 10,16.1045695 10,15 C10,13.8954305 9.1045695,13 8,13 C6.8954305,13 6,13.8954305 6,15 C6,16.1045695 6.8954305,17 8,17 Z M8,19 C5.790861,19 4,17.209139 4,15 C4,12.790861 5.790861,11 8,11 C10.209139,11 12,12.790861 12,15 C12,17.209139 10.209139,19 8,19 Z" fill="#FFE66D" fill-rule="nonzero"></path>
    </g>
</svg>